<?xml version="1.0" encoding="UTF-8" standalone="no"?>
<!DOCTYPE svg PUBLIC "-//W3C//DTD SVG 1.1//EN"
 "http://www.w3.org/Graphics/SVG/1.1/DTD/svg11.dtd">
<!-- Generated by graphviz version 12.2.1 (0)
 -->
<!-- Title: Advanced Web Service with On&#45;Premises (colored) Pages: 1 -->
<svg width="1238pt" height="877pt"
 viewBox="0.00 0.00 1237.80 877.00" xmlns="http://www.w3.org/2000/svg" xmlns:xlink="http://www.w3.org/1999/xlink">
<g id="graph0" class="graph" transform="scale(1 1) rotate(0) translate(144 733)">
<title>Advanced Web Service with On&#45;Premises (colored)</title>
<polygon fill="white" stroke="none" points="-144,144 -144,-733 1093.8,-733 1093.8,144 -144,144"/>
<text text-anchor="middle" x="474.9" y="-10.75" font-family="Sans-Serif" font-size="15.00" fill="#2d3436">Advanced Web Service with On&#45;Premises (colored)</text>
<g id="clust1" class="cluster">
<title>cluster_Service Cluster</title>
<path fill="#e5f5fd" stroke="#aeb6be" d="M159.8,-37C159.8,-37 252.6,-37 252.6,-37 258.6,-37 264.6,-43 264.6,-49 264.6,-49 264.6,-563 264.6,-563 264.6,-569 258.6,-575 252.6,-575 252.6,-575 159.8,-575 159.8,-575 153.8,-575 147.8,-569 147.8,-563 147.8,-563 147.8,-49 147.8,-49 147.8,-43 153.8,-37 159.8,-37"/>
<text text-anchor="middle" x="197.8" y="-559.6" font-family="Sans-Serif" font-size="12.00" fill="#2d3436">Service Cluster</text>
</g>
<g id="clust2" class="cluster">
<title>cluster_Sessions HA</title>
<path fill="#e5f5fd" stroke="#aeb6be" d="M315.6,-403C315.6,-403 597.7,-403 597.7,-403 603.7,-403 609.7,-409 609.7,-415 609.7,-415 609.7,-569 609.7,-569 609.7,-575 603.7,-581 597.7,-581 597.7,-581 315.6,-581 315.6,-581 309.6,-581 303.6,-575 303.6,-569 303.6,-569 303.6,-415 303.6,-415 303.6,-409 309.6,-403 315.6,-403"/>
<text text-anchor="middle" x="346.1" y="-565.6" font-family="Sans-Serif" font-size="12.00" fill="#2d3436">Sessions HA</text>
</g>
<g id="clust3" class="cluster">
<title>cluster_Database HA</title>
<path fill="#e5f5fd" stroke="#aeb6be" d="M315.6,-217C315.6,-217 597.7,-217 597.7,-217 603.7,-217 609.7,-223 609.7,-229 609.7,-229 609.7,-383 609.7,-383 609.7,-389 603.7,-395 597.7,-395 597.7,-395 315.6,-395 315.6,-395 309.6,-395 303.6,-389 303.6,-383 303.6,-383 303.6,-229 303.6,-229 303.6,-223 309.6,-217 315.6,-217"/>
<text text-anchor="middle" x="348.35" y="-379.6" font-family="Sans-Serif" font-size="12.00" fill="#2d3436">Database HA</text>
</g>
<!-- d62e7297e4204728a16b0648fc380ac2 -->
<g id="node1" class="node">
<title>d62e7297e4204728a16b0648fc380ac2</title>
<image xlink:href="/home/justin/work/explore/play-python/.venv/lib/python3.11/site-packages/resources/onprem/network/nginx.png" width="100.8px" height="100.8px" preserveAspectRatio="xMinYMin meet" x="-2.84217e-14" y="-343.4"/>
<text text-anchor="middle" x="50.4" y="-231" font-family="Sans-Serif" font-size="13.00" fill="#2d3436">ingress</text>
</g>
<!-- d305d026679a40fc987048d8f0945d35 -->
<g id="node4" class="node">
<title>d305d026679a40fc987048d8f0945d35</title>
<image xlink:href="/home/justin/work/explore/play-python/.venv/lib/python3.11/site-packages/resources/onprem/compute/server.png" width="100.8px" height="100.8px" preserveAspectRatio="xMinYMin meet" x="155.8" y="-523.4"/>
<text text-anchor="middle" x="206.2" y="-411" font-family="Sans-Serif" font-size="13.00" fill="#2d3436">grpc1</text>
</g>
<!-- d62e7297e4204728a16b0648fc380ac2&#45;&gt;d305d026679a40fc987048d8f0945d35 -->
<g id="edge14" class="edge">
<title>d62e7297e4204728a16b0648fc380ac2&#45;&gt;d305d026679a40fc987048d8f0945d35</title>
<path fill="none" stroke="darkgreen" d="M50.8,-372.82C50.8,-372.82 50.8,-473 50.8,-473 50.8,-473 144.66,-473 144.66,-473"/>
<polygon fill="darkgreen" stroke="darkgreen" points="54.3,-372.82 50.8,-362.82 47.3,-372.82 54.3,-372.82"/>
<polygon fill="darkgreen" stroke="darkgreen" points="144.66,-476.5 154.66,-473 144.66,-469.5 144.66,-476.5"/>
</g>
<!-- eccaeefd38cb4f1f99334ac2534e1454 -->
<g id="node5" class="node">
<title>eccaeefd38cb4f1f99334ac2534e1454</title>
<image xlink:href="/home/justin/work/explore/play-python/.venv/lib/python3.11/site-packages/resources/onprem/compute/server.png" width="100.8px" height="100.8px" preserveAspectRatio="xMinYMin meet" x="155.8" y="-343.4"/>
<text text-anchor="middle" x="206.2" y="-231" font-family="Sans-Serif" font-size="13.00" fill="#2d3436">grpc2</text>
</g>
<!-- d62e7297e4204728a16b0648fc380ac2&#45;&gt;eccaeefd38cb4f1f99334ac2534e1454 -->
<g id="edge15" class="edge">
<title>d62e7297e4204728a16b0648fc380ac2&#45;&gt;eccaeefd38cb4f1f99334ac2534e1454</title>
<path fill="none" stroke="darkgreen" d="M112.07,-293C112.07,-293 144.36,-293 144.36,-293"/>
<polygon fill="darkgreen" stroke="darkgreen" points="112.07,-289.5 102.07,-293 112.07,-296.5 112.07,-289.5"/>
<polygon fill="darkgreen" stroke="darkgreen" points="144.36,-296.5 154.36,-293 144.36,-289.5 144.36,-296.5"/>
</g>
<!-- 8fb7fb49129546d7a491d8fe7415beb6 -->
<g id="node6" class="node">
<title>8fb7fb49129546d7a491d8fe7415beb6</title>
<image xlink:href="/home/justin/work/explore/play-python/.venv/lib/python3.11/site-packages/resources/onprem/compute/server.png" width="100.8px" height="100.8px" preserveAspectRatio="xMinYMin meet" x="155.8" y="-163.4"/>
<text text-anchor="middle" x="206.2" y="-51" font-family="Sans-Serif" font-size="13.00" fill="#2d3436">grpc3</text>
</g>
<!-- d62e7297e4204728a16b0648fc380ac2&#45;&gt;8fb7fb49129546d7a491d8fe7415beb6 -->
<g id="edge16" class="edge">
<title>d62e7297e4204728a16b0648fc380ac2&#45;&gt;8fb7fb49129546d7a491d8fe7415beb6</title>
<path fill="none" stroke="darkgreen" d="M50.8,-213.18C50.8,-213.18 50.8,-113 50.8,-113 50.8,-113 144.66,-113 144.66,-113"/>
<polygon fill="darkgreen" stroke="darkgreen" points="47.3,-213.18 50.8,-223.18 54.3,-213.18 47.3,-213.18"/>
<polygon fill="darkgreen" stroke="darkgreen" points="144.66,-116.5 154.66,-113 144.66,-109.5 144.66,-116.5"/>
</g>
<!-- 111847e63bc045ae9ebde201d9c863df -->
<g id="node2" class="node">
<title>111847e63bc045ae9ebde201d9c863df</title>
<image xlink:href="/home/justin/work/explore/play-python/.venv/lib/python3.11/site-packages/resources/onprem/monitoring/prometheus.png" width="100.8px" height="100.8px" preserveAspectRatio="xMinYMin meet" x="693.2" y="-436.4"/>
<text text-anchor="middle" x="743.6" y="-324" font-family="Sans-Serif" font-size="13.00" fill="#2d3436">metric</text>
</g>
<!-- 6586705ed92e4f87a95ada511516905d -->
<g id="node3" class="node">
<title>6586705ed92e4f87a95ada511516905d</title>
<image xlink:href="/home/justin/work/explore/play-python/.venv/lib/python3.11/site-packages/resources/onprem/monitoring/grafana.png" width="100.8px" height="104.737px" preserveAspectRatio="xMinYMin meet" x="849" y="-438.369"/>
<text text-anchor="middle" x="899.4" y="-324" font-family="Sans-Serif" font-size="13.00" fill="#2d3436">monitoring</text>
</g>
<!-- 111847e63bc045ae9ebde201d9c863df&#45;&gt;6586705ed92e4f87a95ada511516905d -->
<g id="edge1" class="edge">
<title>111847e63bc045ae9ebde201d9c863df&#45;&gt;6586705ed92e4f87a95ada511516905d</title>
<path fill="none" stroke="firebrick" stroke-dasharray="5,2" d="M805.27,-386C805.27,-386 849.07,-386 849.07,-386"/>
<polygon fill="firebrick" stroke="firebrick" points="805.27,-382.5 795.27,-386 805.27,-389.5 805.27,-382.5"/>
</g>
<!-- 0f70801397b444babe76324dbe0882a7 -->
<g id="node7" class="node">
<title>0f70801397b444babe76324dbe0882a7</title>
<image xlink:href="/home/justin/work/explore/play-python/.venv/lib/python3.11/site-packages/resources/onprem/inmemory/redis.png" width="100.8px" height="100.8px" preserveAspectRatio="xMinYMin meet" x="311.6" y="-529.4"/>
<text text-anchor="middle" x="362" y="-417" font-family="Sans-Serif" font-size="13.00" fill="#2d3436">session</text>
</g>
<!-- d305d026679a40fc987048d8f0945d35&#45;&gt;0f70801397b444babe76324dbe0882a7 -->
<g id="edge4" class="edge">
<title>d305d026679a40fc987048d8f0945d35&#45;&gt;0f70801397b444babe76324dbe0882a7</title>
<path fill="none" stroke="brown" d="M256.35,-508.7C256.35,-508.7 300.16,-508.7 300.16,-508.7"/>
<polygon fill="brown" stroke="brown" points="300.16,-512.2 310.16,-508.7 300.16,-505.2 300.16,-512.2"/>
</g>
<!-- f80d8230273748d6b5ead59ff38c004f -->
<g id="node9" class="node">
<title>f80d8230273748d6b5ead59ff38c004f</title>
<image xlink:href="/home/justin/work/explore/play-python/.venv/lib/python3.11/site-packages/resources/onprem/database/postgresql.png" width="100.8px" height="100.8px" preserveAspectRatio="xMinYMin meet" x="311.6" y="-343.4"/>
<text text-anchor="middle" x="362" y="-231" font-family="Sans-Serif" font-size="13.00" fill="#2d3436">users</text>
</g>
<!-- d305d026679a40fc987048d8f0945d35&#45;&gt;f80d8230273748d6b5ead59ff38c004f -->
<g id="edge9" class="edge">
<title>d305d026679a40fc987048d8f0945d35&#45;&gt;f80d8230273748d6b5ead59ff38c004f</title>
<path fill="none" stroke="black" d="M189.8,-404.62C189.8,-396.04 189.8,-390.2 189.8,-390.2 189.8,-390.2 378.8,-390.2 378.8,-390.2 378.8,-390.2 378.8,-372.81 378.8,-372.81"/>
<polygon fill="black" stroke="black" points="382.3,-372.81 378.8,-362.81 375.3,-372.81 382.3,-372.81"/>
</g>
<!-- 9e63c78dce3946ef9ff386190c87f827 -->
<g id="node11" class="node">
<title>9e63c78dce3946ef9ff386190c87f827</title>
<image xlink:href="/home/justin/work/explore/play-python/.venv/lib/python3.11/site-packages/resources/onprem/aggregator/fluentd.png" width="100.8px" height="83.0812px" preserveAspectRatio="xMinYMin meet" x="311.6" y="-154.541"/>
<text text-anchor="middle" x="362" y="-51" font-family="Sans-Serif" font-size="13.00" fill="#2d3436">logging</text>
</g>
<!-- d305d026679a40fc987048d8f0945d35&#45;&gt;9e63c78dce3946ef9ff386190c87f827 -->
<g id="edge17" class="edge">
<title>d305d026679a40fc987048d8f0945d35&#45;&gt;9e63c78dce3946ef9ff386190c87f827</title>
<path fill="none" stroke="darkorange" d="M256.58,-476C275.63,-476 292.8,-476 292.8,-476 292.8,-476 292.8,-147.2 292.8,-147.2 292.8,-147.2 300.2,-147.2 300.2,-147.2"/>
<polygon fill="darkorange" stroke="darkorange" points="300.2,-150.7 310.2,-147.2 300.2,-143.7 300.2,-150.7"/>
</g>
<!-- eccaeefd38cb4f1f99334ac2534e1454&#45;&gt;0f70801397b444babe76324dbe0882a7 -->
<g id="edge5" class="edge">
<title>eccaeefd38cb4f1f99334ac2534e1454&#45;&gt;0f70801397b444babe76324dbe0882a7</title>
<path fill="none" stroke="brown" d="M222.8,-361.38C222.8,-369.96 222.8,-375.8 222.8,-375.8 222.8,-375.8 344.8,-375.8 344.8,-375.8 344.8,-375.8 344.8,-399.23 344.8,-399.23"/>
<polygon fill="brown" stroke="brown" points="341.3,-399.23 344.8,-409.23 348.3,-399.23 341.3,-399.23"/>
</g>
<!-- eccaeefd38cb4f1f99334ac2534e1454&#45;&gt;f80d8230273748d6b5ead59ff38c004f -->
<g id="edge10" class="edge">
<title>eccaeefd38cb4f1f99334ac2534e1454&#45;&gt;f80d8230273748d6b5ead59ff38c004f</title>
<path fill="none" stroke="black" d="M256.35,-293C256.35,-293 300.16,-293 300.16,-293"/>
<polygon fill="black" stroke="black" points="300.16,-296.5 310.16,-293 300.16,-289.5 300.16,-296.5"/>
</g>
<!-- eccaeefd38cb4f1f99334ac2534e1454&#45;&gt;9e63c78dce3946ef9ff386190c87f827 -->
<g id="edge18" class="edge">
<title>eccaeefd38cb4f1f99334ac2534e1454&#45;&gt;9e63c78dce3946ef9ff386190c87f827</title>
<path fill="none" stroke="darkorange" d="M189.8,-224.62C189.8,-216.04 189.8,-210.2 189.8,-210.2 189.8,-210.2 344.8,-210.2 344.8,-210.2 344.8,-210.2 344.8,-192.81 344.8,-192.81"/>
<polygon fill="darkorange" stroke="darkorange" points="348.3,-192.81 344.8,-182.81 341.3,-192.81 348.3,-192.81"/>
</g>
<!-- 8fb7fb49129546d7a491d8fe7415beb6&#45;&gt;0f70801397b444babe76324dbe0882a7 -->
<g id="edge6" class="edge">
<title>8fb7fb49129546d7a491d8fe7415beb6&#45;&gt;0f70801397b444babe76324dbe0882a7</title>
<path fill="none" stroke="brown" d="M256.42,-113C266.88,-113 274.8,-113 274.8,-113 274.8,-113 274.8,-443.3 274.8,-443.3 274.8,-443.3 300.27,-443.3 300.27,-443.3"/>
<polygon fill="brown" stroke="brown" points="300.27,-446.8 310.27,-443.3 300.27,-439.8 300.27,-446.8"/>
</g>
<!-- 8fb7fb49129546d7a491d8fe7415beb6&#45;&gt;f80d8230273748d6b5ead59ff38c004f -->
<g id="edge11" class="edge">
<title>8fb7fb49129546d7a491d8fe7415beb6&#45;&gt;f80d8230273748d6b5ead59ff38c004f</title>
<path fill="none" stroke="black" d="M222.8,-181.38C222.8,-189.96 222.8,-195.8 222.8,-195.8 222.8,-195.8 378.8,-195.8 378.8,-195.8 378.8,-195.8 378.8,-213.19 378.8,-213.19"/>
<polygon fill="black" stroke="black" points="375.3,-213.19 378.8,-223.19 382.3,-213.19 375.3,-213.19"/>
</g>
<!-- 8fb7fb49129546d7a491d8fe7415beb6&#45;&gt;9e63c78dce3946ef9ff386190c87f827 -->
<g id="edge19" class="edge">
<title>8fb7fb49129546d7a491d8fe7415beb6&#45;&gt;9e63c78dce3946ef9ff386190c87f827</title>
<path fill="none" stroke="darkorange" d="M256.35,-78.8C256.35,-78.8 300.16,-78.8 300.16,-78.8"/>
<polygon fill="darkorange" stroke="darkorange" points="300.16,-82.3 310.16,-78.8 300.16,-75.3 300.16,-82.3"/>
</g>
<!-- c05d15f36fee4f80aa5f54d5d37d08de -->
<g id="node8" class="node">
<title>c05d15f36fee4f80aa5f54d5d37d08de</title>
<image xlink:href="/home/justin/work/explore/play-python/.venv/lib/python3.11/site-packages/resources/onprem/inmemory/redis.png" width="100.8px" height="100.8px" preserveAspectRatio="xMinYMin meet" x="500.9" y="-529.4"/>
<text text-anchor="middle" x="551.3" y="-417" font-family="Sans-Serif" font-size="13.00" fill="#2d3436">replica</text>
</g>
<!-- 0f70801397b444babe76324dbe0882a7&#45;&gt;c05d15f36fee4f80aa5f54d5d37d08de -->
<g id="edge2" class="edge">
<title>0f70801397b444babe76324dbe0882a7&#45;&gt;c05d15f36fee4f80aa5f54d5d37d08de</title>
<path fill="none" stroke="brown" stroke-dasharray="5,2" d="M412.23,-479C439.72,-479 473.68,-479 501.16,-479"/>
</g>
<!-- c05d15f36fee4f80aa5f54d5d37d08de&#45;&gt;111847e63bc045ae9ebde201d9c863df -->
<g id="edge3" class="edge">
<title>c05d15f36fee4f80aa5f54d5d37d08de&#45;&gt;111847e63bc045ae9ebde201d9c863df</title>
<path fill="none" stroke="#7b8894" d="M613.09,-432.5C613.09,-432.5 693.29,-432.5 693.29,-432.5"/>
<polygon fill="#7b8894" stroke="#7b8894" points="613.09,-429 603.09,-432.5 613.09,-436 613.09,-429"/>
<text text-anchor="middle" x="647.45" y="-455.4" font-family="Sans-Serif" font-size="13.00" fill="#2d3436">collect</text>
</g>
<!-- 23fc8098b71c43a3b6e6d136cc361b19 -->
<g id="node10" class="node">
<title>23fc8098b71c43a3b6e6d136cc361b19</title>
<image xlink:href="/home/justin/work/explore/play-python/.venv/lib/python3.11/site-packages/resources/onprem/database/postgresql.png" width="100.8px" height="100.8px" preserveAspectRatio="xMinYMin meet" x="500.9" y="-343.4"/>
<text text-anchor="middle" x="551.3" y="-231" font-family="Sans-Serif" font-size="13.00" fill="#2d3436">replica</text>
</g>
<!-- f80d8230273748d6b5ead59ff38c004f&#45;&gt;23fc8098b71c43a3b6e6d136cc361b19 -->
<g id="edge7" class="edge">
<title>f80d8230273748d6b5ead59ff38c004f&#45;&gt;23fc8098b71c43a3b6e6d136cc361b19</title>
<path fill="none" stroke="brown" stroke-dasharray="1,5" d="M412.23,-293C439.72,-293 473.68,-293 501.16,-293"/>
</g>
<!-- 23fc8098b71c43a3b6e6d136cc361b19&#45;&gt;111847e63bc045ae9ebde201d9c863df -->
<g id="edge8" class="edge">
<title>23fc8098b71c43a3b6e6d136cc361b19&#45;&gt;111847e63bc045ae9ebde201d9c863df</title>
<path fill="none" stroke="#7b8894" d="M613.09,-339.5C613.09,-339.5 693.29,-339.5 693.29,-339.5"/>
<polygon fill="#7b8894" stroke="#7b8894" points="613.09,-336 603.09,-339.5 613.09,-343 613.09,-336"/>
<text text-anchor="middle" x="647.45" y="-329.4" font-family="Sans-Serif" font-size="13.00" fill="#2d3436">collect</text>
</g>
<!-- 284f4dc2cdf04292ae14ea4b339d2ad4 -->
<g id="node12" class="node">
<title>284f4dc2cdf04292ae14ea4b339d2ad4</title>
<image xlink:href="/home/justin/work/explore/play-python/.venv/lib/python3.11/site-packages/resources/onprem/queue/kafka.png" width="100.8px" height="100.8px" preserveAspectRatio="xMinYMin meet" x="500.9" y="-163.4"/>
<text text-anchor="middle" x="551.3" y="-51" font-family="Sans-Serif" font-size="13.00" fill="#2d3436">stream</text>
</g>
<!-- 9e63c78dce3946ef9ff386190c87f827&#45;&gt;284f4dc2cdf04292ae14ea4b339d2ad4 -->
<g id="edge12" class="edge">
<title>9e63c78dce3946ef9ff386190c87f827&#45;&gt;284f4dc2cdf04292ae14ea4b339d2ad4</title>
<path fill="none" stroke="#7b8894" d="M412.23,-113C412.23,-113 489.65,-113 489.65,-113"/>
<polygon fill="#7b8894" stroke="#7b8894" points="489.65,-116.5 499.65,-113 489.65,-109.5 489.65,-116.5"/>
<text text-anchor="middle" x="456.65" y="-119.4" font-family="Sans-Serif" font-size="13.00" fill="#2d3436">parse</text>
</g>
<!-- 31ace32ead5945b792552090a0ff4f71 -->
<g id="node13" class="node">
<title>31ace32ead5945b792552090a0ff4f71</title>
<image xlink:href="/home/justin/work/explore/play-python/.venv/lib/python3.11/site-packages/resources/onprem/analytics/spark.png" width="100.8px" height="100.8px" preserveAspectRatio="xMinYMin meet" x="693.2" y="-163.4"/>
<text text-anchor="middle" x="743.6" y="-51" font-family="Sans-Serif" font-size="13.00" fill="#2d3436">analytics</text>
</g>
<!-- 284f4dc2cdf04292ae14ea4b339d2ad4&#45;&gt;31ace32ead5945b792552090a0ff4f71 -->
<g id="edge13" class="edge">
<title>284f4dc2cdf04292ae14ea4b339d2ad4&#45;&gt;31ace32ead5945b792552090a0ff4f71</title>
<path fill="none" stroke="black" stroke-width="2" d="M601.57,-113C601.57,-113 681.77,-113 681.77,-113"/>
<polygon fill="black" stroke="black" stroke-width="2" points="680.26,-116.5 690.26,-113 680.26,-109.5 680.26,-116.5"/>
</g>
</g>
</svg>
